<svg width="400" height="200" viewBox="0 0 400 200" fill="none" xmlns="http://www.w3.org/2000/svg">
  <defs>
    <linearGradient id="logoGradient" x1="0%" y1="0%" x2="100%" y2="100%">
      <stop offset="0%" stop-color="#06b6d4" />
      <stop offset="100%" stop-color="#1e3a8a" />
    </linearGradient>
    <filter id="logoGlow" x="-20%" y="-20%" width="140%" height="140%">
      <feGaussianBlur stdDeviation="2" result="blur" />
      <feComposite in="SourceGraphic" in2="blur" operator="over" />
    </filter>
  </defs>

  <!-- Orbital Ring (Golden) -->
  <circle cx="200" cy="100" r="85" stroke="#fbbf24" stroke-width="1.5" stroke-dasharray="4 4" fill="none" opacity="0.6">
    <animateTransform attributeName="transform" type="rotate" from="0 200 100" to="360 200 100" dur="20s" repeatCount="indefinite" />
  </circle>

  <!-- Main AIEL Text (Stylized) -->
  <g filter="url(#logoGlow)">
    <!-- A -->
    <path d="M70 140 L105 50 L140 140 M87 110 L123 110" stroke="url(#logoGradient)" stroke-width="12" stroke-linecap="round" stroke-linejoin="round" />
    <!-- I -->
    <path d="M170 50 L170 140" stroke="url(#logoGradient)" stroke-width="12" stroke-linecap="round" />
    <!-- E -->
    <path d="M200 50 L250 50 M200 95 L240 95 M200 140 L250 140 M200 50 L200 140" stroke="url(#logoGradient)" stroke-width="12" stroke-linecap="round" stroke-linejoin="round" />
    <!-- L -->
    <path d="M280 50 L280 140 L330 140" stroke="url(#logoGradient)" stroke-width="12" stroke-linecap="round" stroke-linejoin="round" />
  </g>

  <!-- Decorative Accents -->
  <!-- Robot on A -->
  <g transform="translate(100, 35)">
    <rect width="16" height="12" rx="2" fill="#ef4444" />
    <circle cx="5" cy="5" r="2" fill="#34d399" />
    <circle cx="11" cy="5" r="2" fill="#34d399" />
    <rect x="6" y="-4" width="4" height="4" fill="#ef4444" />
    <rect x="7" y="-6" width="2" height="2" fill="#fbbf24" />
  </g>

  <!-- Robot on E -->
  <g transform="translate(230, 80)">
    <rect width="14" height="10" rx="2" fill="#ef4444" />
    <circle cx="4" cy="4" r="1.5" fill="#34d399" />
    <circle cx="10" cy="4" r="1.5" fill="#34d399" />
    <rect x="5" y="-3" width="4" height="3" fill="#ef4444" />
  </g>

  <!-- Teddy Bear on L -->
  <g transform="translate(315, 80)">
    <circle cx="12" cy="12" r="10" fill="#f59e0b" />
    <circle cx="5" cy="5" r="5" fill="#f59e0b" />
    <circle cx="19" cy="5" r="5" fill="#f59e0b" />
    <circle cx="9" cy="10" r="1" fill="black" />
    <circle cx="15" cy="10" r="1" fill="black" />
    <path d="M10 16 Q12 18 14 16" stroke="black" stroke-width="1" fill="none" />
  </g>

  <!-- Toy Car below L -->
  <g transform="translate(300, 145)">
    <path d="M0 10 L30 10 L25 0 L5 0 Z" fill="#ef4444" />
    <circle cx="8" cy="10" r="4" fill="#1f2937" />
    <circle cx="22" cy="10" r="4" fill="#1f2937" />
  </g>

  <!-- ENTERPRISES Tagline -->
  <text x="200" y="180" text-anchor="middle" font-family="Arial, sans-serif" font-size="22" font-weight="bold" letter-spacing="8" fill="#1f2937" style="text-transform: uppercase;">
    ENTERPRISES
  </text>
</svg>
